<svg xmlns="http://www.w3.org/2000/svg" viewBox="0 0 24 24" fill="#eaeaea">
  <path d="M12.04 2a9.84 9.84 0 0 0-8.42 14.93L2 22l5.22-1.58A9.92 9.92 0 1 0 12.04 2Zm0 17.94a8.02 8.02 0 0 1-4.09-1.12l-.29-.18-3.1.94.98-3.02-.2-.31a7.91 7.91 0 1 1 6.7 3.69Zm4.4-5.93c-.24-.12-1.43-.7-1.65-.78-.22-.08-.38-.12-.54.12-.16.24-.62.78-.76.94-.14.16-.28.18-.52.06-.24-.12-1.01-.37-1.93-1.19a7.16 7.16 0 0 1-1.33-1.66c-.14-.24-.01-.37.1-.49.11-.11.24-.28.36-.42.12-.14.16-.24.24-.4.08-.16.04-.3-.02-.42-.06-.12-.54-1.3-.74-1.78-.2-.47-.4-.41-.54-.42h-.46c-.16 0-.42.06-.64.3-.22.24-.84.82-.84 2s.86 2.32.98 2.48c.12.16 1.69 2.58 4.09 3.62.57.25 1.02.39 1.37.5.58.18 1.1.16 1.51.1.46-.07 1.43-.59 1.63-1.15.2-.56.2-1.04.14-1.14-.06-.1-.22-.16-.46-.28Z"/>
</svg>
