<svg width="512" height="512" viewBox="0 0 512 512" fill="none" xmlns="http://www.w3.org/2000/svg">
<rect width="512" height="512" fill="#090909"/>
<path d="M104.206 353.39C88.2368 353.39 74.8696 350.161 64.1041 343.701C53.3385 337.242 45.1746 328.451 39.6124 317.326C34.0503 306.023 31.1794 293.284 31 279.11L77.8302 276.957C78.189 290.234 80.6113 299.923 85.0969 306.023C89.762 312.123 96.1316 315.173 104.206 315.173C112.101 315.173 118.291 312.392 122.776 306.83C127.441 301.088 129.774 292.028 129.774 279.648V158H176.604V279.648C176.604 294.719 173.553 307.817 167.453 318.941C161.353 329.886 152.83 338.409 141.885 344.509C131.12 350.43 118.56 353.39 104.206 353.39ZM202.271 349.084V158H264.172L308.849 288.26L353.257 158H415.159V349.084H368.329V233.357L326.613 348.546H290.548L249.101 233.357V349.084H202.271Z" fill="white"/>
<path d="M481 306.023H437.938V349.084H481V306.023Z" fill="#B6FF2B"/>
</svg>
