<svg width="975" height="424" viewBox="0 0 975 424" fill="none" xmlns="http://www.w3.org/2000/svg">
<path d="M158.601 423.314C124.004 423.314 95.0437 416.317 71.7201 402.323C48.3965 388.329 30.7093 369.283 18.6589 345.182C6.60845 320.692 0.388717 293.092 0 262.385L101.458 257.72C102.235 286.486 107.483 307.477 117.201 320.692C127.308 333.908 141.108 340.517 158.601 340.517C175.705 340.517 189.116 334.491 198.834 322.442C208.941 310.002 213.994 290.372 213.994 263.551V0H315.452V263.551C315.452 296.203 308.843 324.579 295.627 348.68C282.411 372.391 263.945 390.857 240.233 404.072C216.91 416.9 189.699 423.314 158.601 423.314ZM371.058 413.985V0H505.169L601.962 282.209L698.172 0H832.283V413.985H730.825V163.262L640.446 412.819H562.312L472.516 163.262V413.985H371.058Z" fill="white"/>
<path d="M974.927 320.692H881.633V413.984H974.927V320.692Z" fill="#B6FF28"/>
</svg>
